# File created by Blade
# Date/Time:  Tue Sep 30 19:31:45 2014
#---------------------------------------------------------
:version 1.10
:name HOM
:units
  mass 1.0
  length 1.000000
  angle deg
:documentation
     Acclaim Skeleton File
:root
   axis xyz
   order TX TY TZ RX RY RZ
   position 0.000000 0.000000 0.000000
   orientation 0 0 0
:bonedata
   begin
      id 1
      name Spine_dum
      direction 0.000000 1.000000 0.000000
      length 3.241213
      axis 0.0 0.0 0.0 xyz
   end
   begin
      id 2
      name LeftUpLeg_dum
      direction 1.000000 0.000000 0.000000
      length 3.434019
      axis 0.0 0.0 0.0 xyz
   end
   begin
      id 3
      name RightUpLeg_dum
      direction -1.000000 0.000000 0.000000
      length 3.434019
      axis 0.0 0.0 0.0 xyz
   end
   begin
      id 4
      name Spine
      direction 0.000000 1.000000 0.000000
      length 0.000000
      axis 0.0 0.0 0.0 xyz
      dof rx ry rz
   end
   begin
      id 5
      name Spine_dum1
      direction 0.000000 1.000000 0.000000
      length 18.382958
      axis 0.0 0.0 0.0 xyz
   end
   begin
      id 6
      name Spine_dum2
      direction 0.000000 1.000000 0.000000
      length 12.828261
      axis 0.0 0.0 0.0 xyz
   end
   begin
      id 7
      name Spine_dum3
      direction 0.000000 1.000000 0.000000
      length 12.828261
      axis 0.0 0.0 0.0 xyz
   end
   begin
      id 8
      name Head
      direction 0.000000 1.000000 0.000000
      length 4.527550
      axis 0.0 0.0 0.0 xyz
      dof rx ry rz
   end
   begin
      id 9
      name LeftShoulder
      direction 1.000000 0.000000 0.000000
      length 7.748055
      axis 0.0 0.0 -90.0 xyz
      dof rx ry rz
   end
   begin
      id 10
      name LeftArm
      direction 1.000000 0.000000 0.000000
      length 10.635614
      axis 0.0 0.0 -90.0 xyz
      dof rx ry rz
   end
   begin
      id 11
      name LeftForeArm
      direction 1.000000 0.000000 0.000000
      length 8.346755
      axis 0.0 0.0 -90.0 xyz
      dof ry rz rx
   end
   begin
      id 12
      name LeftHand
      direction 0.000000 0.000000 0.000000
      length 0.000000
      axis 0.0 0.0 -90.0 xyz
      dof rx ry rz
   end
   begin
      id 13
      name LeftHand_dum1
      direction 0.000000 0.000000 0.000000
      length 0.000000
      axis 0.0 0.0 -90.0 xyz
   end
   begin
      id 14
      name LeftHand_dum2
      direction 1.000000 0.000000 0.000000
      length 3.937000
      axis 0.0 0.0 -90.0 xyz
   end
   begin
      id 15
      name LeftHandThumb1
      direction 0.000000 0.000000 1.000000
      length 3.937000
      axis 0.0 0.0 -90.0 xyz
      dof rx rz ry
   end
   begin
      id 16
      name RightShoulder
      direction -1.000000 0.000000 0.000000
      length 7.748055
      axis 0.0 0.0 90.0 xyz
      dof rx ry rz
   end
   begin
      id 17
      name RightArm
      direction -1.000000 0.000000 0.000000
      length 10.635614
      axis 0.0 0.0 90.0 xyz
      dof rx ry rz
   end
   begin
      id 18
      name RightForeArm
      direction -1.000000 0.000000 0.000000
      length 8.346755
      axis 0.0 0.0 90.0 xyz
      dof ry rz rx
   end
   begin
      id 19
      name RightHand
      direction 0.000000 0.000000 0.000000
      length 0.000000
      axis 0.0 0.0 90.0 xyz
      dof rx ry rz
   end
   begin
      id 20
      name RightHand_dum1
      direction 0.000000 0.000000 0.000000
      length 0.000000
      axis 0.0 0.0 90.0 xyz
   end
   begin
      id 21
      name RightHand_dum2
      direction -1.000000 0.000000 0.000000
      length 3.937000
      axis 0.0 0.0 90.0 xyz
   end
   begin
      id 22
      name RightHandThumb1
      direction 0.000000 0.000000 1.000000
      length 3.937000
      axis 0.0 0.0 90.0 xyz
      dof rx rz ry
   end
   begin
      id 23
      name LeftUpLeg
      direction 0.000000 -1.000000 0.000000
      length 15.713025
      axis 0.0 0.0 0.0 xyz
      dof rx ry rz
   end
   begin
      id 24
      name LeftLeg
      direction 0.000000 -1.000000 0.000000
      length 14.435119
      axis 0.0 0.0 0.0 xyz
      dof rx ry rz
   end
   begin
      id 25
      name LeftFoot
      direction 0.000000 -0.258819 0.965926
      length 4.938895
      axis 15.0 0.0 0.0 xyz
      dof rx ry rz
   end
   begin
      id 26
      name LeftToeBase
      direction 0.000000 0.000000 1.000000
      length 2.952750
      axis 0.0 0.0 0.0 xyz
      dof rx ry rz
   end
   begin
      id 27
      name RightUpLeg
      direction 0.000000 -1.000000 0.000000
      length 15.713025
      axis 0.0 0.0 0.0 xyz
      dof rx ry rz
   end
   begin
      id 28
      name RightLeg
      direction 0.000000 -1.000000 0.000000
      length 14.435119
      axis 0.0 0.0 0.0 xyz
      dof rx ry rz
   end
   begin
      id 29
      name RightFoot
      direction 0.000000 -0.258819 0.965926
      length 4.938895
      axis 15.0 0.0 0.0 xyz
      dof rx ry rz
   end
   begin
      id 30
      name RightToeBase
      direction 0.000000 0.000000 1.000000
      length 2.952750
      axis 0.0 0.0 0.0 xyz
      dof rx ry rz
   end
:hierarchy
   begin
      root Spine_dum LeftUpLeg_dum RightUpLeg_dum
      Spine_dum Spine
      LeftUpLeg_dum LeftUpLeg
      RightUpLeg_dum RightUpLeg
      Spine Spine_dum1 Spine_dum2 Spine_dum3
      Spine_dum1 Head
      Spine_dum2 LeftShoulder
      Spine_dum3 RightShoulder
      LeftShoulder LeftArm
      LeftArm LeftForeArm
      LeftForeArm LeftHand
      LeftHand LeftHand_dum1 LeftHand_dum2
      LeftHand_dum1 LeftHandThumb1
      RightShoulder RightArm
      RightArm RightForeArm
      RightForeArm RightHand
      RightHand RightHand_dum1 RightHand_dum2
      RightHand_dum1 RightHandThumb1
      LeftUpLeg LeftLeg
      LeftLeg LeftFoot
      LeftFoot LeftToeBase
      RightUpLeg RightLeg
      RightLeg RightFoot
      RightFoot RightToeBase
   end

# File created by Blade
# Date/Time:  Mon Sep 22 19:00:17 2014
# Frame Rate: 120.000 fps
#------------------------------------------------------
:FULLY-SPECIFIED
:DEGREES
117
root -0.928552 32.753399 -3.942044 41.477579 9.463681 1.701972
Spine -48.523101 4.345053 -7.499808
Head 3.811603 -10.806974 0.815763
LeftShoulder -15.736151 43.696697 12.778705
LeftArm 60.798465 19.598601 -65.920716
LeftForeArm 14.629930 -0.000000 0.818688
LeftHand -21.982712 -0.000000 -5.322637
LeftHandThumb1 -26.253704 0.000000 33.147579
RightShoulder -22.892181 -10.663720 -43.365597
RightArm 88.277178 58.597625 51.390259
RightForeArm 27.875302 -0.000000 3.067726
RightHand 10.341102 -0.000000 -10.786112
RightHandThumb1 -24.326973 -0.000000 -32.862282
LeftUpLeg -37.431710 1.393923 1.703071
LeftLeg -0.014308 -0.000000 0.000000
LeftFoot -1.065428 -2.669207 -3.098091
LeftToeBase 2.104676 -0.000000 -0.000000
RightUpLeg -35.311616 -14.277790 8.486939
RightLeg -3.327057 -0.000000 0.000000
RightFoot -7.414409 -7.747317 18.920894
RightToeBase 15.664068 -0.000000 -0.000000
118
root -0.926806 32.753733 -3.933002 41.493543 9.828514 1.735867
Spine -48.536756 4.466888 -7.717982
Head 3.690283 -11.092954 0.899823
LeftShoulder -15.628376 43.687972 12.727418
LeftArm 60.994955 20.445657 -65.750192
LeftForeArm 14.484209 -0.000000 0.961642
LeftHand -21.922106 -0.000000 -5.260755
LeftHandThumb1 -26.253704 0.000000 33.147579
RightShoulder -22.900416 -10.342074 -43.515376
RightArm 88.847890 58.822590 51.312496
RightForeArm 28.326433 -0.000000 3.175703
RightHand 10.396218 0.000000 -10.978458
RightHandThumb1 -24.326973 -0.000000 -32.862282
LeftUpLeg -37.463502 1.239787 1.814616
LeftLeg -0.048147 -0.000000 0.000000
LeftFoot -0.994537 -2.840290 -3.104935
LeftToeBase 2.091578 -0.000000 -0.000000
RightUpLeg -35.274546 -14.452760 8.605977
RightLeg -3.346285 -0.000000 0.000000
RightFoot -7.483826 -7.869509 18.951099
RightToeBase 15.595387 -0.000000 -0.000000
119
root -0.922763 32.754238 -3.923059 41.522017 10.155578 1.764325
Spine -48.568899 4.621588 -7.933940
Head 3.568488 -11.368915 0.915664
LeftShoulder -15.577013 43.648905 12.606911
LeftArm 61.098837 21.192371 -65.689431
LeftForeArm 14.349408 -0.000000 1.100670
LeftHand -21.782174 -0.000000 -5.216981
LeftHandThumb1 -26.253704 0.000000 33.147579
RightShoulder -22.941082 -9.821227 -43.826995
RightArm 89.470918 58.802602 51.509118
RightForeArm 28.523280 -0.000000 3.355583
RightHand 10.525002 -0.000000 -11.137923
RightHandThumb1 -24.326973 -0.000000 -32.862282
LeftUpLeg -37.491204 1.089360 1.930379
LeftLeg -0.095645 -0.000000 0.000000
LeftFoot -0.929992 -3.008606 -3.034411
LeftToeBase 2.060954 -0.000000 -0.000000
RightUpLeg -35.252601 -14.582338 8.694121
RightLeg -3.348097 -0.000000 0.000000
RightFoot -7.572153 -7.996747 18.975735
RightToeBase 15.634060 -0.000000 -0.000000
120
root -0.922373 32.755740 -3.915327 41.573115 10.514977 1.796395
Spine -48.610440 4.745283 -8.148994
Head 3.423924 -11.652426 0.935828
LeftShoulder -15.518220 43.641190 12.478680
LeftArm 61.184291 21.843570 -65.700860
LeftForeArm 14.175239 -0.000000 1.245481
LeftHand -21.767323 -0.000000 -5.101769
LeftHandThumb1 -26.253704 0.000000 33.147579
RightShoulder -22.967243 -9.392727 -44.073415
RightArm 90.305149 58.868302 51.957127
RightForeArm 28.698559 -0.000000 3.644637
RightHand 10.334608 -0.000000 -11.505231
RightHandThumb1 -24.326973 -0.000000 -32.862282
LeftUpLeg -37.562164 0.970926 2.019342
LeftLeg -0.129934 -0.000000 0.000000
LeftFoot -0.845535 -3.216406 -3.037046
LeftToeBase 2.058933 -0.000000 -0.000000
RightUpLeg -35.228858 -14.694802 8.782199
RightLeg -3.396122 -0.000000 0.000000
RightFoot -7.637496 -8.181040 18.997203
RightToeBase 15.661007 -0.000000 -0.000000
121
root -0.922649 32.756243 -3.906275 41.611552 10.888701 1.838736
Spine -48.621596 4.874973 -8.387232
Head 3.285752 -11.971708 0.884709
LeftShoulder -15.434800 43.641772 12.367047
LeftArm 61.207969 22.407703 -65.816092
LeftForeArm 14.091891 -0.000000 1.408196
LeftHand -21.635718 -0.000000 -4.987953
LeftHandThumb1 -26.253704 0.000000 33.147579
RightShoulder -23.094977 -8.658685 -44.579634
RightArm 90.924663 58.527652 52.718430
RightForeArm 28.455413 0.000000 4.323843
RightHand 10.473530 0.000000 -12.009714
RightHandThumb1 -24.326973 -0.000000 -32.862282
LeftUpLeg -37.624760 0.809056 2.132823
LeftLeg -0.152078 -0.000000 0.000000
LeftFoot -0.766861 -3.390614 -3.050350
LeftToeBase 2.021311 -0.000000 -0.000000
RightUpLeg -35.210035 -14.898585 8.929098
RightLeg -3.432020 -0.000000 0.000000
RightFoot -7.689479 -8.284125 19.029959
RightToeBase 15.603556 -0.000000 -0.000000
122
root -0.920179 32.757750 -3.896795 41.676171 11.211867 1.871036
Spine -48.689584 5.006512 -8.607005
Head 3.173404 -12.225631 0.823305
LeftShoulder -15.413435 43.665116 12.206300
LeftArm 61.166117 22.894549 -66.027150
LeftForeArm 14.065495 -0.000000 1.595600
LeftHand -21.710529 0.000000 -4.876794
LeftHandThumb1 -26.253704 0.000000 33.147579
RightShoulder -23.087405 -8.095363 -44.959604
RightArm 91.634636 58.436490 53.414299
RightForeArm 28.346260 -0.000000 4.906641
RightHand 10.242715 -0.000000 -12.067971
RightHandThumb1 -24.326973 -0.000000 -32.862282
LeftUpLeg -37.697986 0.666715 2.233434
LeftLeg -0.191350 -0.000000 0.000000
LeftFoot -0.689754 -3.528094 -3.063983
LeftToeBase 2.017411 -0.000000 -0.000000
RightUpLeg -35.216662 -15.024267 9.029844
RightLeg -3.459234 -0.000000 0.000000
RightFoot -7.739479 -8.418773 19.073948
RightToeBase 15.560379 -0.000000 -0.000000
123
root -0.920361 32.757564 -3.886263 41.720762 11.577546 1.894839
Spine -48.733903 5.160771 -8.839235
Head 3.044746 -12.509659 0.723976
LeftShoulder -15.324768 43.774489 12.058576
LeftArm 61.180505 23.282067 -66.243282
LeftForeArm 14.063120 -0.000000 1.805460
LeftHand -21.806416 -0.000000 -4.789355
LeftHandThumb1 -26.253704 0.000000 33.147579
RightShoulder -23.141225 -7.766656 -45.164513
RightArm 92.480740 58.497289 53.972795
RightForeArm 28.331259 0.000000 5.279514
RightHand 10.273362 -0.000000 -12.086837
RightHandThumb1 -24.326973 -0.000000 -32.862282
LeftUpLeg -37.788301 0.584748 2.306631
LeftLeg -0.168261 -0.000000 0.000000
LeftFoot -0.643654 -3.765356 -3.037184
LeftToeBase 1.926871 -0.000000 -0.000000
RightUpLeg -35.198333 -15.211869 9.191238
RightLeg -3.508109 -0.000000 0.000000
RightFoot -7.797125 -8.523614 19.088284
RightToeBase 15.609108 -0.000000 -0.000000
124
root -0.919629 32.757917 -3.877239 41.765714 11.903669 1.925580
Spine -48.780895 5.304549 -9.074022
Head 2.938095 -12.738533 0.620104
LeftShoulder -15.301974 43.869979 11.878647
LeftArm 61.227316 23.725946 -66.361849
LeftForeArm 14.128438 0.000000 1.919123
LeftHand -21.802493 -0.000000 -4.671134
LeftHandThumb1 -26.253704 0.000000 33.147579
RightShoulder -23.100648 -7.577652 -45.205061
RightArm 93.234879 58.781191 54.193641
RightForeArm 28.735509 -0.000000 5.508470
RightHand 10.344251 -0.000000 -12.477613
RightHandThumb1 -24.326973 -0.000000 -32.862282
LeftUpLeg -37.858769 0.474294 2.386435
LeftLeg -0.177724 -0.000000 0.000000
LeftFoot -0.591384 -3.941922 -3.020579
LeftToeBase 1.916698 -0.000000 -0.000000
RightUpLeg -35.173659 -15.351551 9.300867
RightLeg -3.563246 -0.000000 0.000000
RightFoot -7.845173 -8.653415 19.118807
RightToeBase 15.602729 -0.000000 -0.000000
125
root -0.919038 32.758787 -3.868138 41.805967 12.216536 1.955403
Spine -48.824367 5.467117 -9.326196
Head 2.831447 -12.995098 0.499463
LeftShoulder -15.243831 43.945985 11.721960
LeftArm 61.229904 24.142754 -66.476394
LeftForeArm 14.221331 0.000000 2.076363
LeftHand -21.763088 -0.000000 -4.699418
LeftHandThumb1 -26.253704 0.000000 33.147579
RightShoulder -23.132757 -7.028541 -45.499539
RightArm 93.822196 58.631319 54.638223
RightForeArm 28.691550 -0.000000 5.958697
RightHand 10.450646 -0.000000 -12.969004
RightHandThumb1 -24.326973 -0.000000 -32.862282
LeftUpLeg -37.913676 0.331693 2.495140
LeftLeg -0.200484 -0.000000 0.000000
LeftFoot -0.542770 -4.076512 -3.049963
LeftToeBase 1.966393 -0.000000 -0.000000
RightUpLeg -35.147708 -15.489356 9.409035
RightLeg -3.615406 -0.000000 0.000000
RightFoot -7.884769 -8.775861 19.155177
RightToeBase 15.586665 -0.000000 -0.000000
126
root -0.917613 32.759226 -3.858230 41.855562 12.535552 1.994904
Spine -48.877815 5.629581 -9.601837
Head 2.725375 -13.254471 0.359018
LeftShoulder -15.173880 43.940428 11.598422
LeftArm 61.246419 24.651445 -66.487741
LeftForeArm 14.299783 0.000000 2.149667
LeftHand -21.811505 0.000000 -4.705280
LeftHandThumb1 -26.253704 0.000000 33.147579
RightShoulder -23.124649 -6.796074 -45.616562
RightArm 94.608265 58.775491 55.113626
RightForeArm 28.742322 -0.000000 6.322124
RightHand 10.484197 0.000000 -13.374059
RightHandThumb1 -24.326973 -0.000000 -32.862282
LeftUpLeg -37.970608 0.171162 2.606317
LeftLeg -0.233221 -0.000000 0.000000
LeftFoot -0.479102 -4.203994 -3.060783
LeftToeBase 1.981693 -0.000000 -0.000000
RightUpLeg -35.130474 -15.654975 9.526355
RightLeg -3.669842 -0.000000 0.000000
RightFoot -7.924941 -8.881148 19.234722
RightToeBase 15.551442 -0.000000 -0.000000
